<svg width="256" height="256" viewBox="0 0 256 256" fill="none" xmlns="http://www.w3.org/2000/svg">
<rect width="256" height="256" rx="56" fill="url(#paint0_linear_313_9)"/>
<rect x="44" y="54" width="168" height="148" rx="32" fill="#FFF8F4"/>
<rect x="60" y="72" width="54" height="20" rx="10" fill="#FFE1D3"/>
<rect x="60" y="106" width="136" height="14" rx="7" fill="#FFD6C6"/>
<rect x="60" y="130" width="112" height="14" rx="7" fill="#FFE5DA"/>
<rect x="60" y="154" width="126" height="14" rx="7" fill="#FFE5DA"/>
<path d="M150 48C150 41.3726 155.373 36 162 36H193.28C199.907 36 205.28 41.3726 205.28 48V78.72C205.28 85.3474 199.907 90.72 193.28 90.72H162C155.373 90.72 150 85.3474 150 78.72V48Z" fill="#8F201A"/>
<path d="M166.836 72V54.5455H171.422L177.506 65.1392H177.761V54.5455H181.84V72H177.216L171.17 61.4148H170.915V72H166.836ZM184.536 72V54.5455H196.555V58.1648H188.929V61.3544H195.949V64.9737H188.929V68.3807H196.52V72H184.536Z" fill="#FFF8F4"/>
<path d="M171 213C171 217.971 166.971 222 162 222C157.029 222 153 217.971 153 213C153 208.029 157.029 204 162 204C166.971 204 171 208.029 171 213Z" fill="#8F201A" fill-opacity="0.12"/>
<path d="M44 194H212" stroke="#8F201A" stroke-opacity="0.12" stroke-width="8" stroke-linecap="round"/>
<path d="M174 116L189 101" stroke="#8F201A" stroke-width="10" stroke-linecap="round"/>
<path d="M168 138L201 105" stroke="#8F201A" stroke-width="10" stroke-linecap="round"/>
<path d="M155 104L169 118" stroke="#8F201A" stroke-width="10" stroke-linecap="round"/>
<defs>
<linearGradient id="paint0_linear_313_9" x1="24" y1="18" x2="221" y2="230" gradientUnits="userSpaceOnUse">
<stop stop-color="#FF7A59"/>
<stop offset="1" stop-color="#E63E33"/>
</linearGradient>
</defs>
</svg>
