<svg width="1200" height="630" viewBox="0 0 1200 630" fill="none" xmlns="http://www.w3.org/2000/svg">
<rect width="1200" height="630" fill="#241C20"/>
<circle cx="1094" cy="87" r="158" fill="#FF6D4D" fill-opacity="0.08"/>
<circle cx="99" cy="553" r="171" fill="#FF6D4D" fill-opacity="0.06"/>
<rect x="118" y="122" width="120" height="120" rx="28" fill="url(#paint0_linear_102_16)"/>
<rect x="138" y="146" width="80" height="74" rx="17" fill="#FFF8F4"/>
<rect x="150" y="161" width="28" height="10" rx="5" fill="#FFE1D3"/>
<rect x="150" y="180" width="56" height="8" rx="4" fill="#FFD6C6"/>
<rect x="150" y="196" width="46" height="8" rx="4" fill="#FFE5DA"/>
<path d="M194 174L211 157" stroke="#8F201A" stroke-width="7" stroke-linecap="round"/>
<path d="M188 193L225 156" stroke="#8F201A" stroke-width="7" stroke-linecap="round"/>
<path d="M173 161L187 175" stroke="#8F201A" stroke-width="7" stroke-linecap="round"/>
<text x="370" y="286" fill="#FFF8F4" font-family="Segoe UI, Arial, sans-serif" font-size="84" font-weight="700">LatestNews</text>
<text x="370" y="347" fill="#F5DAD2" font-family="Segoe UI, Arial, sans-serif" font-size="38" font-weight="500">更干净地阅读实时热点</text>
<text x="370" y="399" fill="#F5DAD2" font-family="Segoe UI, Arial, sans-serif" font-size="38" font-weight="500">聚合你真正关心的新闻源</text>
<rect x="118" y="422" width="964" height="4" rx="2" fill="#FF6D4D" fill-opacity="0.28"/>
<text x="118" y="500" fill="#F5DAD2" font-family="Segoe UI, Arial, sans-serif" font-size="28">React + Nitro · Layout sync · PWA · Source health dashboard</text>
<defs>
<linearGradient id="paint0_linear_102_16" x1="130" y1="132" x2="221" y2="226" gradientUnits="userSpaceOnUse">
<stop stop-color="#FF7A59"/>
<stop offset="1" stop-color="#E63E33"/>
</linearGradient>
</defs>
</svg>